<?xml version="1.0" standalone="no"?>
<!DOCTYPE svg PUBLIC "-//W3C//DTD SVG 20010904//EN"
 "http://www.w3.org/TR/2001/REC-SVG-20010904/DTD/svg10.dtd">
<svg version="1.0" xmlns="http://www.w3.org/2000/svg"
 width="380.000000pt" height="380.000000pt" viewBox="0 0 380.000000 380.000000"
 preserveAspectRatio="xMidYMid meet">
<metadata>
Created by potrace 1.14, written by Peter Selinger 2001-2017
</metadata>
<g transform="translate(0.000000,380.000000) scale(0.100000,-0.100000)"
fill="#000000" stroke="none">
<path d="M2100 3369 c-457 -97 -823 -264 -1150 -525 -122 -97 -426 -402 -444
-444 -23 -57 -10 -86 78 -178 135 -141 273 -231 436 -285 66 -22 77 -30 93
-61 21 -43 187 -541 187 -561 0 -11 -13 -15 -52 -15 -204 0 -352 -76 -417
-213 -56 -118 -66 -198 -65 -532 0 -165 4 -357 8 -427 l8 -128 85 0 85 0 -6
42 c-13 90 -24 610 -16 733 20 276 78 350 282 357 36 2 68 1 70 -2 2 -3 1 -61
-3 -130 -4 -69 -8 -322 -8 -562 l-1 -438 87 0 86 0 -7 203 c-6 191 7 814 22
1032 l7 100 100 67 c108 73 363 204 460 237 33 11 52 15 41 8 -170 -111 -246
-272 -233 -492 15 -247 150 -415 388 -482 52 -14 101 -18 264 -17 211 0 317
15 459 64 l59 20 -5 -370 -5 -370 77 0 78 0 7 68 c5 37 9 222 9 412 l2 345 55
52 c105 99 143 216 120 362 -12 71 -11 85 4 132 26 79 16 164 -29 248 -193
357 -282 609 -336 955 -11 72 -24 143 -29 157 -15 47 -255 333 -421 502 l-165
167 -65 -1 c-36 0 -126 -14 -200 -30z m331 -267 c139 -142 329 -369 329 -392
0 -7 -30 -47 -67 -89 -37 -42 -69 -78 -71 -81 -7 -10 -24 29 -55 129 -35 115
-57 145 -113 160 -125 32 -424 40 -592 15 -341 -50 -579 -210 -815 -545 -53
-76 -62 -104 -47 -143 6 -16 9 -31 6 -33 -8 -8 -121 54 -181 100 -33 25 -80
66 -105 92 l-45 46 145 142 c80 78 183 173 230 210 267 214 549 355 908 453
88 24 301 72 328 73 6 1 72 -61 145 -137z m-61 -429 c21 -9 31 -29 59 -114 53
-162 117 -321 197 -488 41 -84 74 -155 74 -156 0 -1 -54 -5 -120 -9 -339 -19
-563 -75 -827 -206 -76 -38 -183 -97 -238 -132 l-101 -64 -69 204 c-38 112
-93 264 -122 339 l-53 136 57 76 c186 248 365 367 628 416 92 17 472 15 515
-2z m454 -327 c24 -171 67 -382 110 -536 20 -68 34 -125 32 -127 -1 -2 -18 15
-36 38 -31 39 -32 43 -21 78 11 35 7 43 -88 241 -105 216 -141 296 -141 312 0
15 114 138 120 130 4 -4 14 -65 24 -136z m-113 -623 c13 -15 11 -16 -26 -10
-22 4 -73 7 -112 7 -42 0 -73 4 -73 10 0 6 40 10 99 10 80 0 101 -3 112 -17z
m79 -188 c134 -19 225 -61 297 -138 51 -54 73 -104 89 -203 10 -67 -17 -144
-70 -192 -204 -188 -799 -245 -985 -94 -77 63 -131 219 -116 335 9 67 37 139
69 182 38 50 122 101 186 114 30 6 64 13 75 15 39 9 351 -4 455 -19z"/>
</g>
</svg>
